<svg width="158" height="40" viewBox="0 0 158 40" fill="none" xmlns="http://www.w3.org/2000/svg">
<path d="M22.4 0C14.4 0 7.7 6.6 7.7 14.6c0 4.8 2.4 9.1 6 11.8-4.1-.9-7.6-2.4-10.4-4.4C1 23.9 0 26.5 0 29.2 0 35.6 9.9 40 22.4 40S44.8 35.6 44.8 29.2c0-2.7-1-5.3-3.3-7.2-2.8 2.1-6.2 3.5-10.4 4.4 3.6-2.7 6-7 6-11.8C37.1 6.6 30.4 0 22.4 0Z" fill="#2FBF6B"/>
<path d="M57.5 30.6c-6.9 0-11.9-5.4-11.9-12.8C45.6 11.1 51.2 6 58.1 6c6.9 0 11.9 5.4 11.9 12.8C70 25.5 64.4 30.6 57.5 30.6Zm.4-19c-3.9 0-6.6 3.4-6.6 6.8 0 3.6 2.4 6.7 6.8 6.7 3.9 0 6.6-3.4 6.6-6.8 0-3.5-2.4-6.7-6.8-6.7ZM95.6 30h-4.9l-.2-2.2c-1.4 1.6-3.5 2.8-6.3 2.8-5.4 0-9.7-4.1-9.7-9.6 0-5.5 4.3-9.6 9.7-9.6 2.7 0 4.7 1 6 2.3V6.4h5.4V30Zm-11-14.6c-2.6 0-4.5 1.9-4.5 4.4 0 2.6 1.9 4.6 4.5 4.6 2.6 0 4.4-1.9 4.4-4.6 0-2.5-1.9-4.4-4.4-4.4ZM108.4 30.6c-5.5 0-9.9-4.2-9.9-9.6 0-5.4 4.4-9.6 9.9-9.6 5.5 0 9.9 4.2 9.9 9.6 0 5.4-4.4 9.6-9.9 9.6Zm0-14.1c-2.5 0-4.4 2.1-4.4 4.5 0 2.6 1.9 4.6 4.4 4.6s4.4-2 4.4-4.6c0-2.4-1.9-4.5-4.4-4.5ZM143.4 30h-5.2v-2.1c-1.2 1.6-3.1 2.7-5.8 2.7-5.5 0-9-4.1-9-9.6 0-5.6 3.6-9.6 9-9.6 2.4 0 4.4.8 5.7 2.3v-1.9h5.4V30Zm-10.6-14.6c-2.6 0-4.1 2.1-4.1 4.5 0 2.5 1.5 4.6 4.1 4.6 2.5 0 4.1-2.1 4.1-4.6 0-2.4-1.6-4.5-4.1-4.5ZM152.9 30h-5.4V10.1h5.4V30Zm-6.3-21c0-1.7 1.4-3.1 3.2-3.1s3.2 1.4 3.2 3.1c0 1.8-1.4 3.2-3.2 3.2s-3.2-1.4-3.2-3.2Z" fill="#163A1C"/>
</svg>
